 <svg xmlns="http://www.w3.org/2000/svg" viewBox="0 0 95.67 380.87"><title>Asset 1</title><g id="Layer_2" data-name="Layer 2"><g id="Layer_1-2" data-name="Layer 1"><path d="M49.79,380.87c-.76,0-1.51,0-2.22-.06s-1.24,0-1.83,0a7,7,0,0,1-2.77-.58c-19-3.61-19.55-21.56-19.55-23.6,0-2.41.31-6.69.67-11.64.43-5.93.92-12.66,1-18.06.19-10-.35-14.94-6.25-19.73-5.05-4.09-5.75-4.63-7-5.59l-2-1.55C3.4,295.08,0,287.15,0,277.15c0-9.09.09-47.12.17-83.89.08-36.48.16-70.94.16-79.11,0-2,0-3.82-.07-5.57C0,95.31-.16,86.55,15.91,75.19,27.47,67,26.36,55.07,25,40c-.49-5.21-1-10.6-1-16.24C24,1.38,43.9.11,47,0a4.72,4.72,0,0,1,.84,0h.06c.42,0,10.32-.32,17.27,6.37,4.31,4.14,6.49,10,6.49,17.29,0,5.64-.5,11-1,16.25C69.31,55,68.21,67,79.77,75.15c16.06,11.36,15.89,20.13,15.64,33.4,0,1.75-.07,3.6-.07,5.57,0,8.17.08,42.63.16,79.11.09,36.77.17,74.8.17,83.89,0,10-3.4,17.92-9.84,22.93l-2,1.56c-1.26,1-2,1.5-7,5.59-5.91,4.79-6.44,9.69-6.25,19.72.1,5.41.59,12.14,1,18.07.36,4.95.68,9.23.68,11.63,0,2-.55,19.88-19.37,23.57a7.63,7.63,0,0,1-3,.68ZM47.6,375.8h.14c.68,0,1.38,0,2.15.06a2.14,2.14,0,0,0,1-.25l.36-.2.41-.08c14.89-2.74,15.65-16.07,15.65-18.72,0-2.22-.31-6.41-.66-11.27-.44-6-.94-12.79-1-18.33-.2-10.5.24-17.34,8.1-23.71,5.09-4.13,5.81-4.68,7.12-5.68l2-1.53c5.25-4.08,7.91-10.47,7.91-19,0-9.09-.08-47.11-.17-83.88-.08-36.48-.16-70.95-.16-79.12,0-2,0-3.88.07-5.67.25-12.91.37-19.39-13.53-29.22S64.31,54.85,65.74,39.46c.47-5.11,1-10.38,1-15.79,0-5.92-1.67-10.52-5-13.69-3.6-3.47-8.38-4.53-11.21-4.85v.32L47.63,5l-.37,0c-3,0-18.29,1-18.29,18.67,0,5.4.49,10.68,1,15.78,1.42,15.39,2.77,29.93-11.15,39.78S5,95.58,5.26,108.49c0,1.78.07,3.66.07,5.66,0,8.18-.08,42.64-.16,79.12C5.09,230,5,268.07,5,277.15c0,8.52,2.66,14.91,7.91,19,.92.72,1.49,1.15,2,1.52,1.3,1,2,1.55,7.13,5.69,7.85,6.37,8.29,13.2,8.1,23.7-.11,5.54-.61,12.34-1,18.34-.36,4.85-.66,9.05-.66,11.27,0,2.65.76,16,15.77,18.73l.37.07.34.17a1.81,1.81,0,0,0,.85.21h0q.89,0,1.71,0Z"/></g></g></svg>