 <svg class="icon-steps" xmlns="http://www.w3.org/2000/svg" viewBox="0 0 374.05 380.87"><defs> </defs><title>step-1</title><g id="Layer_2" data-name="Layer 2"><g id="Layer_1-2" data-name="Layer 1"><path d="M49.79,380.87c-.76,0-1.51,0-2.22-.06s-1.24,0-1.83,0a7,7,0,0,1-2.77-.58c-19-3.61-19.55-21.56-19.55-23.6,0-2.41.31-6.69.67-11.64.43-5.93.92-12.66,1-18.06.19-10-.35-14.94-6.25-19.73-5.05-4.09-5.75-4.63-7-5.59l-2-1.55C3.4,295.08,0,287.15,0,277.15c0-9.09.09-47.12.17-83.89.08-36.48.16-70.94.16-79.11,0-2,0-3.82-.07-5.57C0,95.31-.16,86.55,15.91,75.19,27.47,67,26.36,55.07,25,40c-.49-5.21-1-10.6-1-16.24C24,1.38,43.9.11,47,0a4.72,4.72,0,0,1,.84,0h.06c.42,0,10.32-.32,17.27,6.37,4.31,4.14,6.49,10,6.49,17.29,0,5.64-.5,11-1,16.25C69.31,55,68.21,67,79.77,75.15c16.06,11.36,15.89,20.13,15.64,33.4,0,1.75-.07,3.6-.07,5.57,0,8.17.08,42.63.16,79.11.09,36.77.17,74.8.17,83.89,0,10-3.4,17.92-9.84,22.93l-2,1.56c-1.26,1-2,1.5-7,5.59-5.91,4.79-6.44,9.69-6.25,19.72.1,5.41.59,12.14,1,18.07.36,4.95.68,9.23.68,11.63,0,2-.55,19.88-19.37,23.57a7.63,7.63,0,0,1-3,.68ZM47.6,375.8h.14c.68,0,1.38,0,2.15.06a2.14,2.14,0,0,0,1-.25l.36-.2.41-.08c14.89-2.74,15.65-16.07,15.65-18.72,0-2.22-.31-6.41-.66-11.27-.44-6-.94-12.79-1-18.33-.2-10.5.24-17.34,8.1-23.71,5.09-4.13,5.81-4.68,7.12-5.68l2-1.53c5.25-4.08,7.91-10.47,7.91-19,0-9.09-.08-47.11-.17-83.88-.08-36.48-.16-70.95-.16-79.12,0-2,0-3.88.07-5.67.25-12.91.37-19.39-13.53-29.22S64.31,54.85,65.74,39.46c.47-5.11,1-10.38,1-15.79,0-5.92-1.67-10.52-5-13.69-3.6-3.47-8.38-4.53-11.21-4.85v.32L47.63,5l-.37,0c-3,0-18.29,1-18.29,18.67,0,5.4.49,10.68,1,15.78,1.42,15.39,2.77,29.93-11.15,39.78S5,95.58,5.26,108.49c0,1.78.07,3.66.07,5.66,0,8.18-.08,42.64-.16,79.12C5.09,230,5,268.07,5,277.15c0,8.52,2.66,14.91,7.91,19,.92.72,1.49,1.15,2,1.52,1.3,1,2,1.55,7.13,5.69,7.85,6.37,8.29,13.2,8.1,23.7-.11,5.54-.61,12.34-1,18.34-.36,4.85-.66,9.05-.66,11.27,0,2.65.76,16,15.77,18.73l.37.07.34.17a1.81,1.81,0,0,0,.85.21h0q.89,0,1.71,0Z"/><path d="M192.2,31.11A41,41,0,0,0,151.27,72V308.82a40.93,40.93,0,0,0,81.86,0V72A41,41,0,0,0,192.2,31.11Zm0,313.14a35.47,35.47,0,0,1-35.43-35.43V72a35.43,35.43,0,0,1,70.86,0V308.82A35.47,35.47,0,0,1,192.2,344.25Z"/><circle cx="184.26" cy="98.75" r="0.72"/><circle cx="184.26" cy="98.75" r="1.78"/><circle cx="184.26" cy="118.96" r="0.72"/><circle cx="184.26" cy="118.96" r="1.78"/><circle cx="200.14" cy="98.75" r="0.72"/><circle cx="200.14" cy="98.75" r="1.78"/><circle cx="200.14" cy="118.96" r="0.72"/><circle cx="200.14" cy="118.96" r="1.78"/><circle cx="330.64" cy="65.58" r="0.68"/><circle cx="330.64" cy="65.58" r="1.67"/><circle cx="330.64" cy="84.52" r="0.68"/><circle cx="330.64" cy="84.52" r="1.67"/><circle cx="345.52" cy="65.58" r="0.68"/><circle cx="345.52" cy="65.58" r="1.67"/><circle cx="345.52" cy="84.52" r="0.68"/><circle cx="345.52" cy="84.52" r="1.67"/><ellipse cx="184.23" cy="263.29" rx="0.71" ry="0.7"/><ellipse cx="184.23" cy="263.29" rx="1.75" ry="1.72"/><ellipse cx="184.23" cy="282.89" rx="0.71" ry="0.7"/><ellipse cx="184.23" cy="282.89" rx="1.75" ry="1.72"/><ellipse cx="199.82" cy="263.29" rx="0.71" ry="0.7"/><ellipse cx="199.82" cy="263.29" rx="1.75" ry="1.72"/><ellipse cx="199.82" cy="282.89" rx="0.71" ry="0.7"/><ellipse cx="199.82" cy="282.89" rx="1.75" ry="1.72"/><circle cx="330.64" cy="266.36" r="0.68"/><circle cx="330.64" cy="266.36" r="1.67"/><circle cx="330.64" cy="285.29" r="0.68"/><circle cx="330.64" cy="285.29" r="1.67"/><circle cx="345.52" cy="266.36" r="0.68"/><circle cx="345.52" cy="266.36" r="1.67"/><circle cx="345.52" cy="285.29" r="0.68"/><circle cx="345.52" cy="285.29" r="1.67"/><path d="M338.53,339a4.08,4.08,0,0,1-.61,0c-3.54.18-11.51-2.45-16.47-27.82-.44-2.24-.95-4.81-1.53-7.67-7-35.21-21.67-108.46-16.86-163.22,6-68.05,16.05-100.26,32.5-103.4v-.25h5.06v.26c16.45,3.14,26.52,35.35,32.5,103.42,4.81,54.79-10.39,130.81-16.88,163.28-.57,2.84-1.08,5.4-1.51,7.62C350,335.41,342.55,339,338.53,339Zm-.44-4.76.34.07h.1c.28,0,7-.28,11.6-24,.44-2.23.95-4.79,1.52-7.64,6.45-32.27,21.56-107.83,16.81-161.95-2.15-24.42-8.67-98.73-30.26-99.4H338c-21.58.67-28.11,75-30.25,99.38-4.75,54.09,10.34,129.63,16.79,161.89.57,2.87,1.08,5.45,1.52,7.7,4.8,24.51,11.62,24,11.7,24Z"/></g></g></svg>