<svg xmlns="http://www.w3.org/2000/svg" viewBox="0 0 83.556 45"><defs><style>.a{fill:#010101;}.b{fill:#fff;}.c{fill:#e9e9e9;}</style></defs><g transform="translate(-0.035 0)"><path class="a" d="M91.928,125.013a1.01,1.01,0,0,1-.248-.023,3.743,3.743,0,0,1-1.915-.7c-.023,0-.023-.023-.045-.023a3.3,3.3,0,0,1-.856-.946,3.647,3.647,0,0,1-.225-.406,2.71,2.71,0,0,1-.158-.428c0-.023-.023-.045-.023-.068a3.074,3.074,0,0,1-.09-.383.083.083,0,0,0-.023-.068.924.924,0,0,1-.023-.248c-.023-.248-.023-.428-.023-.541,0-.18.023-.338.023-.428a2.512,2.512,0,0,1,.045-.383,9.19,9.19,0,0,1,.541-1.758v-.023c.113-.248.225-.473.315-.676.023-.023.023-.045.045-.068a4.187,4.187,0,0,1,.248-.428c0-.023.023-.023.023-.045l.158-.248c.225-.338.451-.676.676-.992,1.78-2.569,3.673-5.025,5.656-7.369.5-.563,1.014-1.172,1.577-1.78.248-.27.541-.586.856-.9l.27-.248a4.06,4.06,0,0,0,.361-.338l.113-.09c.023-.023.045-.045.068-.045.09-.068.2-.135.383-.248.023,0,.023-.023.045-.023a1.379,1.379,0,0,1,.27-.113,2.6,2.6,0,0,1,.473-.135,2.485,2.485,0,0,1,.406-.045h.068a2.711,2.711,0,0,1,1.037.225,2.6,2.6,0,0,1,.946.676,2.707,2.707,0,0,1,.5.811c0,.023,0,.023.023.045a1.653,1.653,0,0,1,.113.451v.045a2.546,2.546,0,0,1,0,.676c0,.068-.023.135-.023.2v.023a2.341,2.341,0,0,1-.068.27c-.023.045-.023.09-.045.135a3.554,3.554,0,0,1-.315.653.33.33,0,0,0-.045.09,13.135,13.135,0,0,1-.766,1.1c-.2.27-.451.586-.7.9l-.766,1.217c-.338.541-.7,1.082-1.059,1.645.113-.068,1.352-.766,1.352-.766l.068-.045a8.1,8.1,0,0,0,.789-.473,1.822,1.822,0,0,1,1.059-.315,1.95,1.95,0,0,1,1.375.586,1.912,1.912,0,0,1,.2,2.434,16.049,16.049,0,0,1-1.555,1.825l-.113.113c-.5.518-1.014,1.014-1.69,1.667-1.1,1.059-2.253,2.073-3.493,3.11a22.512,22.512,0,0,1-2.073,1.555,13.409,13.409,0,0,1-1.307.766,6.463,6.463,0,0,1-.879.361c-.135.045-.248.068-.338.09l-.09.023c-.09.023-.18.045-.293.068h-.045c-.113.023-.225.023-.361.045a1.6,1.6,0,0,1-.338.023A.136.136,0,0,0,91.928,125.013Z" transform="translate(-68.376 -81.185)"/><path class="a" d="M217.2,118.913h-.315c-.113,0-.2-.023-.293-.023a.135.135,0,0,1-.09-.023l-.338-.068c-.023,0-.023,0-.045-.023a4.341,4.341,0,0,1-.721-.27,2.694,2.694,0,0,1-.563-.361c-.023-.023-.045-.023-.045-.045a3.263,3.263,0,0,1-.406-.383,2.518,2.518,0,0,1-.315-.406.9.9,0,0,0-.068-.09l-.068-.113a.674.674,0,0,1-.09-.18.749.749,0,0,1-.068-.135,3.309,3.309,0,0,1-.135-.315c-.023-.045-.023-.09-.045-.113l-.068-.18c0-.023-.023-.045-.023-.068a6.124,6.124,0,0,1-.2-1.78v-.045a8.009,8.009,0,0,1,.158-1.284,14.685,14.685,0,0,1,1.442-3.988,19.662,19.662,0,0,1,1.082-1.78c.2-.293.428-.586.653-.856l.563-.676c.744-.9,1.532-1.78,2.344-2.659.946-1.014,1.758-1.825,2.546-2.569a19.38,19.38,0,0,1,3.02-2.411c.023,0,.09-.068.09-.068.27-.158.541-.338.856-.5l.022-.023a3.243,3.243,0,0,1,.383-.18c.023,0,.09-.045.18-.068a.511.511,0,0,1,.09-.023c.045,0,.068-.023.18-.045a1.131,1.131,0,0,1,.27-.045,1.387,1.387,0,0,1,.315-.023,4.4,4.4,0,0,1,.518.045c.068.023.135.023.2.045a2.325,2.325,0,0,1,1.239.834,2.356,2.356,0,0,1,.18.248,1.7,1.7,0,0,1,.2.406,2.248,2.248,0,0,1,.428.248,3.513,3.513,0,0,1,.451.361.982.982,0,0,1,.135.158c.113.135.225.068.315.2s-.045.744,0,.9l.045.09a3.022,3.022,0,0,1,.18.744v.045c0,.068.023.113.023.18v.586a7.369,7.369,0,0,1-.293,1.442,11.12,11.12,0,0,1-.834,1.938,16.9,16.9,0,0,1-.946,1.667,34.469,34.469,0,0,1-2.073,3.042c-.631.834-1.329,1.69-2.208,2.749-.811.991-1.622,1.87-2.456,2.727-.518.518-.789.744-1.262,1.149a11.863,11.863,0,0,1-1.96,1.352,5.287,5.287,0,0,1-.541.248,1.1,1.1,0,0,1-.158.068,1.488,1.488,0,0,1-.338.113c-.023,0-.045,0-.045.023-.09.023-.225.068-.428.113a2.221,2.221,0,0,1-.383.045C217.446,118.913,217.334,118.913,217.2,118.913Z" transform="translate(-165.209 -75.22)"/><path class="a" d="M2.686,101.473a1.64,1.64,0,0,1-1.127-.428l-.946-.834a1.672,1.672,0,0,1-.27-2.231c.338-.5.991-1.487,1.6-2.366.361-.541.7-1.037.9-1.329.451-.676.924-1.352,1.375-2.051,1.262-1.87,2.569-3.808,3.876-5.724,1.465-2.141,3.4-4.957,5.431-7.729l.27-.338a1.584,1.584,0,0,1-.834-.563,1.706,1.706,0,0,1,.023-2.208,12.45,12.45,0,0,1,2.051-1.915,4.253,4.253,0,0,1,.811-.5.33.33,0,0,0,.09-.045,3.068,3.068,0,0,1,1.329-.315h.2a1.727,1.727,0,0,1,.451.068,3.216,3.216,0,0,1,.5.18,2.655,2.655,0,0,1,.789.608,3.231,3.231,0,0,1,.586,1.014v.023a3.921,3.921,0,0,1,.18,1.352v.023a7.11,7.11,0,0,1-.293,1.69,13.377,13.377,0,0,1-.5,1.4,10.823,10.823,0,0,1-.608,1.284l-.338.608-.27.5c-1.622,2.862-3.335,5.588-5.07,8.112a86.5,86.5,0,0,1-5.836,7.684c-.631.744-2.456,2.749-3.11,3.448A1.663,1.663,0,0,1,2.686,101.473Z" transform="translate(0 -56.473)"/><path class="a" d="M137.238,87.277h-.068c-.113,0-.225-.023-.315-.023h-.045c-.09-.023-.248-.045-.451-.09a3.991,3.991,0,0,1-.946-.406,3.721,3.721,0,0,1-.9-.789,4.2,4.2,0,0,1-.316-.473l-.023-.045a3.115,3.115,0,0,1-.225-.5,4.064,4.064,0,0,1-.248-1.284,6.673,6.673,0,0,1,.045-.766v-.068a10.143,10.143,0,0,1,.225-.991,11.242,11.242,0,0,1,.541-1.352c.158-.338.338-.7.563-1.1.406-.744.834-1.42,1.194-1.96.744-1.127,1.577-2.3,2.591-3.583.969-1.217,1.893-2.3,2.839-3.335a27.855,27.855,0,0,1,3.335-3.132,14.773,14.773,0,0,1,4.327-2.434c.023,0,.023,0,.045-.023a10.2,10.2,0,0,1,2.682-.473h.045a3.657,3.657,0,0,1,.473.023c1.239-1.622,2.456-3.312,3.65-5.025,0-.023.023-.023.023-.045.09-.135.338-.473.563-.789q1.014-1.487,1.42-1.96A1.921,1.921,0,0,1,159.7,56a2.045,2.045,0,0,1,.946.248l.991.563a1.922,1.922,0,0,1,.924,1.239,1.984,1.984,0,0,1-.27,1.51c-.045.09-.428.676-.856,1.352-4.056,6.355-8.9,13.881-10.275,15.548a55.75,55.75,0,0,1-6.039,6.377l-.045.045-.473.406a15.526,15.526,0,0,1-1.262,1.037l-.834.653c-.023.023-.068.045-.09.068l-.9.631c-.293.2-.676.451-1.1.7a8.189,8.189,0,0,1-1.465.676c-.113.045-.225.068-.293.09l-.09.023c-.068.023-.2.045-.361.09h-.023a1.751,1.751,0,0,1-.361.045h-.045c-.135,0-.248.023-.383.023A.243.243,0,0,0,137.238,87.277Z" transform="translate(-103.546 -43.381)"/><path class="a" d="M169.86,135.524a1.824,1.824,0,0,1-.338-.023h-.068a4.5,4.5,0,0,1-.586-.113c-.023,0-.045-.023-.068-.023a3.336,3.336,0,0,1-.7-.293,3.553,3.553,0,0,1-1.262-1.194,3.412,3.412,0,0,1-.293-.563c0-.023-.023-.045-.023-.068a4.321,4.321,0,0,1-.135-.473q-.034-.237-.068-.406c0-.113-.023-.2-.023-.293v-.023a4.039,4.039,0,0,1,.068-.811V131.2a7.417,7.417,0,0,1,.225-.9,7.851,7.851,0,0,1,.5-1.194,17.611,17.611,0,0,1,1.014-1.8c.338-.563.721-1.127,1.014-1.6a34.366,34.366,0,0,1,2.366-3.065,32.365,32.365,0,0,1,2.659-2.817,1.919,1.919,0,0,1,1.307-.518,2,2,0,0,1,1.059.315,1.926,1.926,0,0,1,.744,2.253c-.2.563-.428,1.127-.653,1.667.5-.338.969-.631,1.42-.924.09-.068.406-.248.406-.248a1.99,1.99,0,0,1,.991-.27,1.9,1.9,0,0,1,1.33.541l.856.811a1.929,1.929,0,0,1,.113,2.659l-.158.18a2.471,2.471,0,0,1-.225.248c-.811.9-1.645,1.78-2.569,2.682-.811.811-1.69,1.645-2.7,2.546-.856.744-1.848,1.622-2.952,2.434a11.019,11.019,0,0,1-1.127.721c-.023,0-.023.023-.045.023a5.267,5.267,0,0,1-1.059.428.512.512,0,0,0-.09.023,3.184,3.184,0,0,1-.924.135Z" transform="translate(-128.8 -92.417)"/><path class="a" d="M277.869,123.8h-.225c-2.051-.113-4.191-1.51-4.011-5a10.513,10.513,0,0,1,.293-2.006c-.811.946-1.577,1.893-2.3,2.817-2.344,3-3,3.56-4.079,3.56h-.113a3.136,3.136,0,0,1-2.659-1.735,4.958,4.958,0,0,1-.563-2.682,6.869,6.869,0,0,1,.27-1.532,1.551,1.551,0,0,1-.293-.248l-.608-.608a1.918,1.918,0,0,1,0-2.7,32.573,32.573,0,0,0,2.591-2.907c.924-1.194,2.952-3.786,5.724-7.053a2.665,2.665,0,0,1,2.389-1.059h.158a2.991,2.991,0,0,1,2.817,3.425,2.5,2.5,0,0,1-.045.428c3.853-3.2,5.566-3.876,6.58-3.876a3.331,3.331,0,0,1,.473-.023h.2c1.938.113,2.952,1.713,2.839,3.65a3.551,3.551,0,0,1-.27,1.172c-.113.27-.2.5-2.321,3.177-.023.023-.023.045-.045.068a43.593,43.593,0,0,0-3.7,4.89,11.543,11.543,0,0,0-1.082,2.028,22.655,22.655,0,0,0,1.758-1.51,1.913,1.913,0,0,1,2.569-.045l.676.586a1.909,1.909,0,0,1,.09,2.794c-3.087,3.042-5.3,4.394-7.121,4.394Z" transform="translate(-203.729 -79.48)"/><ellipse class="a" cx="2.704" cy="2.636" rx="2.704" ry="2.636" transform="translate(33.895 17.283)"/><path class="a" d="M45.528,32.9a2.045,2.045,0,0,1-.946-.248l-1.307-.744a1.9,1.9,0,0,1-.924-1.239,1.965,1.965,0,0,1,.315-1.532l1.848-2.614.541-.789.563-.789,1.1-1.622,2.208-3.267,4.394-6.58,2.208-3.29A32.833,32.833,0,0,0,57.381,7.1c.158-.293.293-.586.406-.834a20.017,20.017,0,0,0-2.344.676c-.293.113-.586.2-.879.315,0,0-.225.09-.248.09l-.09.045-.045.023a1.553,1.553,0,0,0-.18.068c-.023.023-.068.023-.113.045-.023,0-.023.023-.045.023a11.776,11.776,0,0,0-1.42.789,29.286,29.286,0,0,0-5.633,4.6,1.128,1.128,0,0,0-.158.18.6.6,0,0,0-.113.135c-.113.135-.586.653-1.127,1.262-.766.856-1.825,2.051-1.915,2.163a1.868,1.868,0,0,1-1.442.676A1.928,1.928,0,0,1,41,17.036l-.969-.608a1.881,1.881,0,0,1-.834-1.239,1.976,1.976,0,0,1,.315-1.465c.135-.2,2.907-3.763,2.952-3.786l.023-.023c.045-.045.068-.09.113-.135a3.369,3.369,0,0,1,.248-.293,35.419,35.419,0,0,1,3-3.132,27.393,27.393,0,0,1,3.4-2.794,15.393,15.393,0,0,1,2.006-1.217l.5-.248.293-.135.113-.045L52.4,1.8c.315-.135.653-.27.991-.406C54.158,1.1,54.857.856,55.51.653A17.831,17.831,0,0,1,57.967.09,8.6,8.6,0,0,1,59.251,0H59.5a6.072,6.072,0,0,1,1.96.383,4.8,4.8,0,0,1,1.194.653,4.964,4.964,0,0,1,1.059,1.1,5.21,5.21,0,0,1,.608,1.284c0,.023.023.045.023.068a5.093,5.093,0,0,1,.18,1.127,8.245,8.245,0,0,1-.451,3.042c0,.023,0,.023-.023.045a18.691,18.691,0,0,1-.924,2.208,35.171,35.171,0,0,1-2.163,3.763L58.8,17.013c-1.42,2.163-2.929,4.439-4.439,6.647-.361.518-.721,1.059-1.1,1.6a1.689,1.689,0,0,1-.225.451L50.08,30.038a1.891,1.891,0,0,1-.518.518c-.2.135-.406.27-.608.428l-2.3,1.6A2.3,2.3,0,0,1,45.528,32.9Z" transform="translate(-30.313 0)"/><g transform="translate(11.729 23.232)"><path class="a" d="M55.034,123.425a1.386,1.386,0,0,1-.293-.023H54.7a3.414,3.414,0,0,1-.856-.225,2.944,2.944,0,0,1-1.127-.9l-.023-.023a2.67,2.67,0,0,1-.518-1.735v-.135a3.582,3.582,0,0,1,.225-.991.321.321,0,0,1,.045-.09c.068-.158.135-.338.225-.518a6.352,6.352,0,0,1,.406-.721q.406-.642.744-1.149c.473-.676.946-1.329,1.4-1.96l.518-.7c.541-.744,1.1-1.51,1.645-2.276l-1.352.766a1.8,1.8,0,0,1-.946.248A1.864,1.864,0,0,1,54,112.654l-1.239-.856a1.9,1.9,0,0,1-.811-1.329,1.949,1.949,0,0,1,.428-1.487l.068-.068a1.555,1.555,0,0,1,.406-.361l7.661-5.093a1.821,1.821,0,0,1,1.059-.315,2.483,2.483,0,0,1,.406.045.135.135,0,0,0,.09-.023,8.747,8.747,0,0,1,.9-.068,2.451,2.451,0,0,1,.406.023,4.014,4.014,0,0,1,1.059.2,3.593,3.593,0,0,1,2.389,2.546,3.765,3.765,0,0,1,.113,1.239v.045a5.138,5.138,0,0,1-.315,1.4v.023a8.805,8.805,0,0,1-.811,1.6.022.022,0,0,1-.023.023c-.361.563-.744,1.149-1.149,1.735l.045.045.315.293a1.913,1.913,0,0,1,.586,1.352A1.833,1.833,0,0,1,65.039,115c-.406.428-.811.834-1.217,1.262-.924.991-2.163,2.3-3.425,3.583-.586.586-1.194,1.194-1.87,1.8a14.169,14.169,0,0,1-1.172.946l-.023.023a6.994,6.994,0,0,1-.991.563c-.023,0-.045.023-.068.023l-.113.045a.135.135,0,0,1-.09.023l-.27.068a2.125,2.125,0,0,1-.451.068A1.6,1.6,0,0,1,55.034,123.425Z" transform="translate(-51.932 -103.1)"/></g><path class="b" d="M101.583,118.612c.27-.721.563-1.42.856-2.118l.428-1.037c.135-.338.293-.7.406-1.014.023-.068.045-.158.045-.158,0,.023,0,0-.023.045v.18c0,.045,0,.023.045.135a.6.6,0,0,0,.135.225.781.781,0,0,0,.248.18.727.727,0,0,0,.27.045h.135a.233.233,0,0,0,.09-.023c.023,0,.045-.023.068-.023l.068-.023a.022.022,0,0,1-.023.023c-.023.045-.09.113-.135.18l-.135.2c-.2.315-.406.608-.608.924l-1.217,1.893c-1.622,2.524-3.312,5.025-5,7.481-.2.293-.428.608-.631.9l-.158.225a1.379,1.379,0,0,1-.09.135,4.209,4.209,0,0,0-.225.451,4.275,4.275,0,0,0-.293.766c0,.023,0,.045-.023.045v-.023a.083.083,0,0,0-.023-.068.929.929,0,0,0-.315-.428.715.715,0,0,0-.383-.158H95.07c.023,0,.023,0,.068-.023a1.571,1.571,0,0,0,.383-.135c.27-.113.586-.27.9-.428.608-.338,1.239-.721,1.87-1.1,1.262-.789,2.546-1.6,3.853-2.389l1.96-1.149.991-.563a8.805,8.805,0,0,0,.991-.586,16.025,16.025,0,0,1-1.51,1.735c-.518.541-1.082,1.082-1.622,1.6-1.1,1.059-2.231,2.051-3.4,3.042A20.721,20.721,0,0,1,97.662,129a10.194,10.194,0,0,1-1.1.653c-.2.09-.428.2-.676.293l-.2.068a.667.667,0,0,1-.225.045c-.09.023-.18.023-.27.045h-.338a1.723,1.723,0,0,1-1.329-.766,2.465,2.465,0,0,1-.135-.248c-.045-.09-.045-.135-.09-.225a.658.658,0,0,1-.045-.2c0-.068-.023-.113-.023-.18a1.6,1.6,0,0,1-.023-.315.845.845,0,0,1,.023-.248c0-.09.023-.158.023-.225a7.658,7.658,0,0,1,.428-1.375c.09-.2.18-.383.27-.563.068-.113.135-.248.2-.361l.158-.248c.225-.338.428-.653.653-.969,1.735-2.5,3.56-4.89,5.521-7.211.5-.586.991-1.149,1.51-1.713.248-.27.518-.563.811-.834l.225-.225c.068-.068.158-.135.248-.225l.09-.068a.849.849,0,0,1,.18-.113c.023-.023.068-.023.113-.045a.459.459,0,0,1,.113-.023c.045,0,.09-.023.135-.023a.727.727,0,0,1,.27.045.546.546,0,0,1,.248.18.6.6,0,0,1,.135.225c.045.113.023.09.045.135v.18a.135.135,0,0,1-.023.09c0,.045-.023.068-.023.113a1.322,1.322,0,0,1-.18.361c-.225.361-.451.653-.676.969s-.473.608-.7.9A12.158,12.158,0,0,1,101.583,118.612Z" transform="translate(-72.172 -88.079)"/><path class="b" d="M226.974,110.865c.383-.428.789-1.059,1.172-1.487l1.172-1.239c.383-.406,1.014-1.284,1.375-1.69.09-.09.18,0,.225-.068h0l-.023.023a.022.022,0,0,1-.023.023s-.023-.135-.023-.09a.494.494,0,0,0,.09.315c.135.18,0,.631.09.653a.382.382,0,0,0,.18,0h.09l-.113.09c-.2.158-.428.338-.631.5a25.357,25.357,0,0,0-2.3,2.366c-.721.834-1.217,1.487-1.893,2.366-.7.879-1.375,1.78-2.051,2.659l-.5.676c-.158.2-.293.428-.428.631a12.976,12.976,0,0,0-.744,1.352,10.791,10.791,0,0,0-.946,2.839,3.384,3.384,0,0,0-.068.653,1.821,1.821,0,0,0,.045.451v0h0a.022.022,0,0,0-.023-.023l-.045-.045a.311.311,0,0,0-.09-.068.491.491,0,0,0-.113-.09.32.32,0,0,0-.135-.045.083.083,0,0,1-.068-.023H221a1.514,1.514,0,0,0,.27-.135,7.218,7.218,0,0,0,1.194-.834c.2-.158.406-.338.608-.518a6.923,6.923,0,0,0,.586-.563c.789-.744,1.532-1.577,2.3-2.389.744-.834,1.262-1.465,2.006-2.3.721-.834,1.4-1.713,2.051-2.591.315-.451.631-.9.924-1.352a11.963,11.963,0,0,0,.766-1.352,3.491,3.491,0,0,0,.225-.608l.022-.09v-.023c0,.023.023,0,.023.023a.048.048,0,0,0,.045.045c.023.023.045.045.068.045s.023.023.045.023h-.068l-.135.023-.158.045a4.8,4.8,0,0,0-.744.248,7.8,7.8,0,0,0-2.681,1.758,4.063,4.063,0,0,0-.924,1.307,1.48,1.48,0,0,0-.158.744,1.014,1.014,0,0,0,.361.7c-.248-.135-.473-.135-.541-.428a2.031,2.031,0,0,1-.023-.9,5.5,5.5,0,0,1,.744-1.848,8.2,8.2,0,0,1,2.682-2.434,5.233,5.233,0,0,1,.879-.406l.248-.09c.09-.023.2-.045.293-.068a1.707,1.707,0,0,1,.338-.023.846.846,0,0,1,.225.023.2.2,0,0,1,.113.023c.045.023.09.023.135.045a1.209,1.209,0,0,1,.248.113.882.882,0,0,1,.225.18.807.807,0,0,1,.158.225c.023.045.045.068.045.113l.045.113a1.53,1.53,0,0,1,.09.383v.315a3.208,3.208,0,0,1-.225.992,12.39,12.39,0,0,1-.721,1.668c-.27.518-.541,1.037-.856,1.532-.608.991-1.262,1.96-1.96,2.884s-1.42,1.8-2.141,2.682c-.744.879-1.284,1.532-2.118,2.366-.428.428-.856.834-1.329,1.239a8.959,8.959,0,0,1-1.622,1.127c-.158.09-.338.158-.518.248a2.126,2.126,0,0,1-.2.068c-.068.023-.135.045-.225.068s-.18.023-.27.045a1.473,1.473,0,0,1-.315,0,.383.383,0,0,1-.158-.023.53.53,0,0,1-.18-.045,2.111,2.111,0,0,1-.338-.135,1.438,1.438,0,0,1-.315-.18,2.246,2.246,0,0,1-.248-.225,1.968,1.968,0,0,1-.18-.225l-.068-.113-.045-.09c-.023-.068-.068-.135-.09-.2l-.068-.18a4.028,4.028,0,0,1-.135-1.194,6.667,6.667,0,0,1,.113-.991,12.758,12.758,0,0,1,1.262-3.47,13.8,13.8,0,0,1,.969-1.555c.18-.248.361-.5.563-.744l.563-.653c.744-.879,1.51-1.735,2.276-2.591.789-.834,1.375-1.217,2.231-2.006a30.5,30.5,0,0,1,3-2.907c.27-.158.518-.09.789-.248a1.076,1.076,0,0,1,.27-.113c.023,0,.023-.023.068-.023l.045-.023c.023,0,.023,0,.045-.023a.17.17,0,0,0,.09-.023.463.463,0,0,1,.2,0,.566.566,0,0,1,.338.225c.135.2.09.068.09.113a.7.7,0,0,1-.045.158.079.079,0,0,1-.023.045c-.023.045-.248.5-.27.518-.023.045-.045.045-.068.09a2.385,2.385,0,0,1-.361.338c-.451.383-.9.744-1.375,1.082s-.924.676-1.4,1.014A14.733,14.733,0,0,0,226.974,110.865Z" transform="translate(-169.779 -82.157)"/><ellipse class="c" cx="1.375" cy="1.329" rx="1.375" ry="1.329" transform="translate(34.774 18.59)"/><path class="b" d="M20.6,81.711a1.056,1.056,0,0,0-.248-.428.851.851,0,0,0-.27-.2c-.045-.023-.113-.045-.158-.068a.335.335,0,0,0-.135-.023,1.512,1.512,0,0,0-.789.18,4.66,4.66,0,0,0-.563.338,10.2,10.2,0,0,0-1.758,1.645,9.225,9.225,0,0,1,1.037-.563,10.83,10.83,0,0,1,1.037-.5,2.276,2.276,0,0,1,.518-.158c.158-.045.338-.045.361,0h-.023a.079.079,0,0,1-.045-.023V82a3.365,3.365,0,0,1-.045.383,4.494,4.494,0,0,1-.361.946,10.434,10.434,0,0,1-.541.969c-.2.315-.406.631-.608.924-.113.158-.225.293-.338.428l-.361.5c-1.87,2.546-3.628,5.093-5.408,7.684-1.758,2.569-3.493,5.183-5.228,7.752-.541.789-1.938,2.907-2.479,3.7l.946.834c.631-.676,2.456-2.682,3.065-3.38a88.566,88.566,0,0,0,5.724-7.549c1.78-2.591,3.425-5.3,5-8l.293-.5c.113-.18.2-.361.315-.541a10.344,10.344,0,0,0,.541-1.127,9.32,9.32,0,0,0,.428-1.194,5.859,5.859,0,0,0,.225-1.307A2.774,2.774,0,0,0,20.6,81.711Z" transform="translate(-3.227 -62.738)"/><path class="b" d="M161.9,64.8c-.338.406-1.577,2.208-1.893,2.636-1.442,2.051-2.884,4.034-4.394,5.994-.09-.023-.158-.045-.248-.068a4.126,4.126,0,0,0-1.059-.113,7.025,7.025,0,0,0-2.141.383,12.609,12.609,0,0,0-3.741,2.141,25.56,25.56,0,0,0-3.11,2.929c-.969,1.037-1.87,2.118-2.749,3.222s-1.713,2.253-2.5,3.448c-.383.586-.766,1.194-1.127,1.848-.18.315-.361.653-.518.991a9.013,9.013,0,0,0-.451,1.127,4.475,4.475,0,0,0-.18.7,1.588,1.588,0,0,0-.023.473,1.7,1.7,0,0,0,.135.676,1.052,1.052,0,0,0,.113.225,1.982,1.982,0,0,1,.135.225,1.383,1.383,0,0,0,.428.383,1.661,1.661,0,0,0,.473.2c.09.023.135.023.2.045.068,0,.135.023.2.023h.315a.959.959,0,0,0,.248-.045c.09-.023.158-.023.225-.045l.2-.068a7.184,7.184,0,0,0,1.172-.541q.507-.3.946-.608l.9-.631.856-.653c.586-.428,1.1-.924,1.667-1.375a53.822,53.822,0,0,0,5.836-6.174c1.78-2.186,10.7-16.292,11.042-16.765Zm-21.52,25.6h0v0Zm9.509-9.937c-.9,1.037-1.825,2.028-2.772,3-.473.5-.946.969-1.442,1.442-.5.451-.992.924-1.487,1.375-.518.428-.991.9-1.532,1.284l-.789.608-.811.563c-.068.045-.158.113-.225.158l.27-.541q.439-.879.946-1.758c.676-1.172,1.42-2.321,2.186-3.448s1.555-2.231,2.389-3.335c.406-.541.834-1.082,1.262-1.6s.879-1.014,1.352-1.487a13.731,13.731,0,0,1,3.155-2.434,6.834,6.834,0,0,1,1.87-.653,4.057,4.057,0,0,1,1.172-.068c-.135.18-.27.338-.406.518A81.508,81.508,0,0,1,149.891,80.461Z" transform="translate(-106.69 -50.198)"/><path class="b" d="M182.822,130.894c-.135.068-.248.158-.383.225-1.037.631-2.028,1.307-3,2.006-.992.7-1.938,1.4-2.884,2.118l-1.307.991c.225-.518.473-1.037.7-1.555.473-1.059,1.014-2.141,1.51-3.222.5-1.1.969-2.208,1.4-3.358a30.915,30.915,0,0,0-2.5,2.659,31.964,31.964,0,0,0-2.231,2.907c-.338.518-.676,1.014-.992,1.532s-.631,1.059-.924,1.645q-.2.439-.406.946a3.677,3.677,0,0,0-.158.631,2.591,2.591,0,0,0-.045.473v.158c0,.068.023.135.023.2.023.068.045.158.068.248a3.132,3.132,0,0,0,.135.293,1.451,1.451,0,0,0,.563.541,1.063,1.063,0,0,0,.338.135,1.319,1.319,0,0,0,.293.045,1.826,1.826,0,0,0,.7-.068,3.614,3.614,0,0,0,.7-.293,7.834,7.834,0,0,0,.9-.586c1.014-.744,1.915-1.532,2.817-2.321.9-.811,1.78-1.622,2.636-2.479s1.69-1.713,2.479-2.614c.135-.135.248-.293.383-.428Zm-8.563,7.932V138.8h0Z" transform="translate(-132.905 -99.234)"/><path class="b" d="M285.327,125.309c-2.141,2.006-3.7,2.975-4.687,2.929-.451-.022-.653-.608-.586-1.735a8.947,8.947,0,0,1,1.69-4.146,46.609,46.609,0,0,1,3.853-5.093c1.307-1.667,1.983-2.569,2.073-2.749a1.431,1.431,0,0,0,.113-.518,1.188,1.188,0,0,0-1.284-1.4,2.874,2.874,0,0,0-.428.023c-1.6-.09-6.332,3.741-14.219,11.537q1.048-3.346,5.7-9.69a1.564,1.564,0,0,0,.18-.631c.045-.744-.383-1.127-1.239-1.194a1.18,1.18,0,0,0-.947.586c-2.772,3.245-4.6,5.431-5.5,6.58a36.449,36.449,0,0,1-2.749,3.042l.608.608.068-.068,3.042-3.155c-.721,1.51-1.307,2.817-1.78,3.876a8.129,8.129,0,0,0-.766,2.591,3,3,0,0,0,.315,1.667,1.26,1.26,0,0,0,1.082.721c.225.023,1.082-.924,2.569-2.817s3.132-3.831,4.935-5.836a38.359,38.359,0,0,1,6.107-5.453l-3.358,5.318a14.582,14.582,0,0,0-2.253,6.445c-.09,1.915.631,2.907,2.208,3,1.239.068,3.2-1.217,5.881-3.831Z" transform="translate(-207.04 -87.227)"/><path class="b" d="M66.785,10.953a2.359,2.359,0,0,0-.361-.766,2.8,2.8,0,0,0-.608-.653,2.915,2.915,0,0,0-.721-.406,4.555,4.555,0,0,0-1.375-.248,6.819,6.819,0,0,0-1.194.068,14.9,14.9,0,0,0-2.141.5c-.676.2-1.33.451-1.983.7-.315.135-.631.248-.946.383l-.225.09-.113.045-.135.068c-.18.09-.361.158-.518.248A16.5,16.5,0,0,0,54.639,12.1a29.754,29.754,0,0,0-3.2,2.591A31.885,31.885,0,0,0,48.6,17.645c-.113.135-.2.27-.315.406S45.49,21.634,45.4,21.791l.946.608c.09-.09,2.974-3.358,3.065-3.47.113-.113.2-.248.315-.361a31.966,31.966,0,0,1,5.994-4.89,14.848,14.848,0,0,1,1.645-.9c.135-.068.27-.113.406-.18l.09-.045.113-.045.225-.09c.315-.113.608-.225.924-.338a17.522,17.522,0,0,1,3.628-.924,5.011,5.011,0,0,1,.811-.023,2.434,2.434,0,0,1,.586.113.558.558,0,0,1,.2.158c.023.023.023.068.045.135a.771.771,0,0,1,.023.248,4.018,4.018,0,0,1-.068.676,6.037,6.037,0,0,1-.225.789,13.238,13.238,0,0,1-.744,1.645,37.97,37.97,0,0,1-1.96,3.267l-2.163,3.358L54.842,28.1l-2.208,3.267-1.127,1.622-.563.811-.563.789L48.532,37.2l1.307.744,2.3-1.6c.2-.135.406-.293.631-.428,0,0,3.808-5.679,4.281-6.4,1.51-2.186,2.952-4.394,4.417-6.6l2.163-3.335a32.484,32.484,0,0,0,2.051-3.56,17.437,17.437,0,0,0,.834-1.983,6.358,6.358,0,0,0,.383-2.366A2.812,2.812,0,0,0,66.785,10.953Z" transform="translate(-35.143 -6.874)"/><g transform="translate(13.254 25.229)"><path class="b" d="M69.246,112.51a1.745,1.745,0,0,0-.721-.428,2.2,2.2,0,0,0-.586-.113,3.833,3.833,0,0,0-.9.045,3.559,3.559,0,0,0-.946.2c-.563.2-7.053,4.6-7.053,4.6l-.338.451,1.1.766,2.434-1.4a27.741,27.741,0,0,1,4.214-2.028,4.52,4.52,0,0,1,.856-.248,4.731,4.731,0,0,1-.338.676c-.766,1.352-1.668,2.682-2.591,3.988-.924,1.329-1.87,2.614-2.839,3.921-.473.653-.946,1.33-1.42,2.006-.225.338-.473.676-.7,1.059-.113.18-.225.383-.338.586-.045.113-.113.225-.158.338a1.852,1.852,0,0,0-.135.541,1.037,1.037,0,0,0,.18.631.9.9,0,0,0,.361.293,2.31,2.31,0,0,0,.315.09h.225c.068,0,.135-.023.18-.023.045-.023.09-.023.135-.045l.113-.045a4.515,4.515,0,0,0,.676-.383c.383-.27.7-.541,1.014-.811.631-.563,1.217-1.149,1.8-1.713,1.149-1.172,2.276-2.344,3.38-3.538l1.217-1.284-.315-.293c-.451.383-.9.744-1.352,1.127-1.262,1.059-2.479,2.141-3.718,3.177l-1.42,1.149c.451-.586.924-1.149,1.4-1.735,1.014-1.262,2.051-2.524,3.042-3.831s1.96-2.636,2.862-4.079a9.364,9.364,0,0,0,.653-1.262,2.967,2.967,0,0,0,.2-.9,2.381,2.381,0,0,0-.068-.653A1.566,1.566,0,0,0,69.246,112.51Zm-9.487,14.467h0Zm7.661-13.137Z" transform="translate(-58.7 -111.961)"/></g><path class="b" d="M137.9,92.7" transform="translate(-106.799 -71.811)"/></g></svg>