<svg xmlns="http://www.w3.org/2000/svg" viewBox="0 0 376.48 380.87"><defs><style>.cls-1{fill:#fff;}</style></defs><title>Asset 1</title><g id="Layer_2" data-name="Layer 2"><g id="Layer_1-2" data-name="Layer 1"><path class="cls-1" d="M49.79,380.87c-.76,0-1.51,0-2.22-.06s-1.24,0-1.83,0a7,7,0,0,1-2.77-.58c-19-3.61-19.55-21.56-19.55-23.6,0-2.41.31-6.69.67-11.64.43-5.93.92-12.66,1-18.06.19-10-.35-14.94-6.25-19.73-5.05-4.09-5.75-4.63-7-5.59l-2-1.55C3.4,295.08,0,287.15,0,277.15c0-9.09.09-47.12.17-83.89.08-36.48.16-70.94.16-79.11,0-2,0-3.82-.07-5.57C0,95.31-.16,86.55,15.91,75.19,27.47,67,26.36,55.07,25,40c-.49-5.21-1-10.6-1-16.24C24,1.38,43.9.11,47,0a4.72,4.72,0,0,1,.84,0h.06c.42,0,10.32-.32,17.27,6.37,4.31,4.14,6.49,10,6.49,17.29,0,5.64-.5,11-1,16.25C69.31,55,68.21,67,79.77,75.15c16.06,11.36,15.89,20.13,15.64,33.4,0,1.75-.07,3.6-.07,5.57,0,8.17.08,42.63.16,79.11.09,36.77.17,74.8.17,83.89,0,10-3.4,17.92-9.84,22.93l-2,1.56c-1.26,1-2,1.5-7,5.59-5.91,4.79-6.44,9.69-6.25,19.72.1,5.41.59,12.14,1,18.07.36,4.95.68,9.23.68,11.63,0,2-.55,19.88-19.37,23.57a7.63,7.63,0,0,1-3,.68ZM47.6,375.8h.14c.68,0,1.38,0,2.15.06a2.14,2.14,0,0,0,1-.25l.36-.2.41-.08c14.89-2.74,15.65-16.07,15.65-18.72,0-2.22-.31-6.41-.66-11.27-.44-6-.94-12.79-1-18.33-.2-10.5.24-17.34,8.1-23.71,5.09-4.13,5.81-4.68,7.12-5.68l2-1.53c5.25-4.08,7.91-10.47,7.91-19,0-9.09-.08-47.11-.17-83.88-.08-36.48-.16-70.95-.16-79.12,0-2,0-3.88.07-5.67.25-12.91.37-19.39-13.53-29.22S64.31,54.85,65.74,39.46c.47-5.11,1-10.38,1-15.79,0-5.92-1.67-10.52-5-13.69-3.6-3.47-8.38-4.53-11.21-4.85v.32L47.63,5l-.37,0c-3,0-18.29,1-18.29,18.67,0,5.4.49,10.68,1,15.78,1.42,15.39,2.77,29.93-11.15,39.78S5,95.58,5.26,108.49c0,1.78.07,3.66.07,5.66,0,8.18-.08,42.64-.16,79.12C5.09,230,5,268.07,5,277.15c0,8.52,2.66,14.91,7.91,19,.92.72,1.49,1.15,2,1.52,1.3,1,2,1.55,7.13,5.69,7.85,6.37,8.29,13.2,8.1,23.7-.11,5.54-.61,12.34-1,18.34-.36,4.85-.66,9.05-.66,11.27,0,2.65.76,16,15.77,18.73l.37.07.34.17a1.81,1.81,0,0,0,.85.21h0q.89,0,1.71,0Z"/><path class="cls-1" d="M192.2,31.11A41,41,0,0,0,151.27,72V308.82a40.93,40.93,0,0,0,81.86,0V72A41,41,0,0,0,192.2,31.11Zm0,313.14a35.47,35.47,0,0,1-35.43-35.43V72a35.43,35.43,0,0,1,70.86,0V308.82A35.47,35.47,0,0,1,192.2,344.25Z"/><circle class="cls-1" cx="184.26" cy="98.75" r="0.72"/><circle class="cls-1" cx="184.26" cy="98.75" r="1.78"/><circle class="cls-1" cx="184.26" cy="118.96" r="0.72"/><circle class="cls-1" cx="184.26" cy="118.96" r="1.78"/><circle class="cls-1" cx="200.14" cy="98.75" r="0.72"/><circle class="cls-1" cx="200.14" cy="98.75" r="1.78"/><circle class="cls-1" cx="200.14" cy="118.96" r="0.72"/><circle class="cls-1" cx="200.14" cy="118.96" r="1.78"/><circle class="cls-1" cx="39.9" cy="45.43" r="0.72"/><circle class="cls-1" cx="39.9" cy="45.43" r="1.78"/><circle class="cls-1" cx="39.9" cy="65.64" r="0.72"/><circle class="cls-1" cx="39.9" cy="65.64" r="1.78"/><circle class="cls-1" cx="55.78" cy="45.43" r="0.72"/><circle class="cls-1" cx="55.78" cy="45.43" r="1.78"/><circle class="cls-1" cx="55.78" cy="65.64" r="0.72"/><circle class="cls-1" cx="55.78" cy="65.64" r="1.78"/><circle class="cls-1" cx="39.9" cy="308.2" r="0.72"/><circle class="cls-1" cx="39.9" cy="308.2" r="1.78"/><circle class="cls-1" cx="39.9" cy="328.41" r="0.72"/><circle class="cls-1" cx="39.9" cy="328.41" r="1.78"/><circle class="cls-1" cx="55.78" cy="308.2" r="0.72"/><circle class="cls-1" cx="55.78" cy="308.2" r="1.78"/><circle class="cls-1" cx="55.78" cy="328.41" r="0.72"/><circle class="cls-1" cx="55.78" cy="328.41" r="1.78"/><circle class="cls-1" cx="330.14" cy="57.31" r="0.72"/><circle class="cls-1" cx="330.14" cy="57.31" r="1.78"/><circle class="cls-1" cx="330.14" cy="77.53" r="0.72"/><circle class="cls-1" cx="330.14" cy="77.53" r="1.78"/><circle class="cls-1" cx="346.02" cy="57.31" r="0.72"/><circle class="cls-1" cx="346.02" cy="57.31" r="1.78"/><circle class="cls-1" cx="346.02" cy="77.53" r="0.72"/><circle class="cls-1" cx="346.02" cy="77.53" r="1.78"/><circle class="cls-1" cx="184.26" cy="263.34" r="0.72"/><circle class="cls-1" cx="184.26" cy="263.34" r="1.78"/><circle class="cls-1" cx="184.26" cy="283.56" r="0.72"/><circle class="cls-1" cx="184.26" cy="283.56" r="1.78"/><circle class="cls-1" cx="200.14" cy="263.34" r="0.72"/><circle class="cls-1" cx="200.14" cy="263.34" r="1.78"/><circle class="cls-1" cx="200.14" cy="283.56" r="0.72"/><circle class="cls-1" cx="200.14" cy="283.56" r="1.78"/><circle class="cls-1" cx="330.14" cy="271.67" r="0.72"/><circle class="cls-1" cx="330.14" cy="271.67" r="1.78"/><circle class="cls-1" cx="330.14" cy="291.89" r="0.72"/><circle class="cls-1" cx="330.14" cy="291.89" r="1.78"/><circle class="cls-1" cx="346.02" cy="271.67" r="0.72"/><circle class="cls-1" cx="346.02" cy="271.67" r="1.78"/><circle class="cls-1" cx="346.02" cy="291.89" r="0.72"/><circle class="cls-1" cx="346.02" cy="291.89" r="1.78"/><path class="cls-1" d="M338.56,349.25a4.63,4.63,0,0,1-.65,0c-3.78.19-12.29-2.62-17.59-29.7-.47-2.39-1-5.14-1.63-8.2-7.51-37.58-23.13-115.79-18-174.25,6.39-72.67,17.14-107,34.7-110.4v-.27h5.4v.28c17.56,3.35,28.32,37.74,34.7,110.41,5.14,58.5-11.09,139.67-18,174.33-.61,3-1.15,5.77-1.62,8.14C350.8,345.39,342.85,349.25,338.56,349.25Zm-.47-5.08.36.07h.11c.3,0,7.43-.29,12.39-25.67.46-2.38,1-5.11,1.62-8.16,6.89-34.45,23-115.12,17.94-172.91-2.29-26.07-9.25-105.41-32.3-106.12H338c-23,.71-30,80-32.3,106.1-5.07,57.75,11.05,138.4,17.93,172.84.61,3.07,1.16,5.82,1.63,8.22,5.12,26.18,12.4,25.66,12.48,25.66Z"/></g></g></svg>