<svg xmlns="http://www.w3.org/2000/svg" viewBox="0 0 76.8 322.87"><defs><style>.cls-1{fill:#fff;}</style></defs><title>cruiser_1</title><g id="Layer_2" data-name="Layer 2"><g id="Layer_1-2" data-name="Layer 1"><circle class="cls-1" cx="30.46" cy="30.93" r="0.72"/><circle class="cls-1" cx="30.46" cy="30.93" r="1.78"/><circle class="cls-1" cx="30.46" cy="51.14" r="0.72"/><circle class="cls-1" cx="30.46" cy="51.14" r="1.78"/><circle class="cls-1" cx="46.34" cy="30.93" r="0.72"/><circle class="cls-1" cx="46.34" cy="30.93" r="1.78"/><circle class="cls-1" cx="46.34" cy="51.14" r="0.72"/><circle class="cls-1" cx="46.34" cy="51.14" r="1.78"/><circle class="cls-1" cx="30.46" cy="245.29" r="0.72"/><circle class="cls-1" cx="30.46" cy="245.29" r="1.78"/><circle class="cls-1" cx="30.46" cy="265.5" r="0.72"/><circle class="cls-1" cx="30.46" cy="265.5" r="1.78"/><circle class="cls-1" cx="46.34" cy="245.29" r="0.72"/><circle class="cls-1" cx="46.34" cy="245.29" r="1.78"/><circle class="cls-1" cx="46.34" cy="265.5" r="0.72"/><circle class="cls-1" cx="46.34" cy="265.5" r="1.78"/><path class="cls-1" d="M38.88,322.87a4.73,4.73,0,0,1-.65,0c-3.77.19-12.29-2.62-17.58-29.7-.47-2.39-1-5.14-1.63-8.2C11.51,247.34-4.12,169.14,1,110.67,7.4,38,18.15,3.63,35.71.27V0h5.4V.27C58.68,3.63,69.43,38,75.81,110.69,81,169.19,64.73,250.36,57.8,285c-.61,3-1.16,5.76-1.62,8.14C51.13,319,43.17,322.87,38.88,322.87Zm-.47-5.08.37.07h.1c.3,0,7.43-.29,12.39-25.67.47-2.38,1-5.12,1.62-8.16,6.89-34.45,23-115.13,17.94-172.91C68.55,85.05,61.58,5.72,38.54,5h-.25c-23,.72-30,80-32.29,106.11C.92,168.86,17,249.51,23.92,284c.61,3.07,1.16,5.82,1.63,8.22C30.67,318.34,38,317.83,38,317.83Z"/></g></g></svg>